# xmcd CD database file
#
# Track frame offsets:
#	150
#	12948
#	24471
#	37955
#	49729
#	61983
#	73842
#	87803
#	99035
#	110018
#
# Disc length: 1615 seconds
#
# Revision: 0
# Processed by: cddbd v1.5.1PL2 Copyright (c) Steve Scherf et al.
# Submitted via: CDex 1.70beta2
#
DISCID=76064d0a
DTITLE=Roy Rogers - Don't Fence Me In
DYEAR=2004
DGENRE=Country
TTITLE0=Don't Fence Me In
TTITLE1=Hi Ho Silver
TTITLE2=That Pioneer Mother of Mine
TTITLE3=Ride Ranger Ride
TTITLE4=Melody of the Plains
TTITLE5=Hold That Critter Down
TTITLE6=There's a Roundup in the Sky
TTITLE7=Time Changes Everything
TTITLE8=My Chickasay Girl
TTITLE9=Don't Waste Your Love on Me
EXTD=YEAR: 2004
EXTT0=
EXTT1=
EXTT2=
EXTT3=
EXTT4=
EXTT5=
EXTT6=
EXTT7=
EXTT8=
EXTT9=
PLAYORDER=
